<mxfile host="app.diagrams.net" modified="2023-05-18T15:21:38.320Z" agent="Mozilla/5.0 (Windows NT 10.0; Win64; x64) AppleWebKit/537.36 (KHTML, like Gecko) Chrome/111.0.0.0 Safari/537.36" etag="Sq0k1zzej1iedCFmjSZl" version="21.3.2" type="google">
  <diagram name="PÃ¡gina-1" id="fNYn8s-YT7UlgeS0jaIf">
    <mxGraphModel grid="1" page="1" gridSize="10" guides="1" tooltips="1" connect="1" arrows="1" fold="1" pageScale="1" pageWidth="827" pageHeight="1169" math="0" shadow="0">
      <root>
        <mxCell id="0" />
        <mxCell id="1" parent="0" />
        <mxCell id="4lG1aH9SxtIHgWfeeq3n-3" value="" style="edgeStyle=orthogonalEdgeStyle;rounded=0;orthogonalLoop=1;jettySize=auto;html=1;strokeWidth=3;fontStyle=1" edge="1" parent="1" source="4lG1aH9SxtIHgWfeeq3n-1" target="4lG1aH9SxtIHgWfeeq3n-2">
          <mxGeometry relative="1" as="geometry" />
        </mxCell>
        <mxCell id="4lG1aH9SxtIHgWfeeq3n-1" value="INICIO" style="ellipse;whiteSpace=wrap;html=1;aspect=fixed;strokeWidth=3;fontStyle=1;fillColor=#b1ddf0;strokeColor=#10739e;" vertex="1" parent="1">
          <mxGeometry x="360" y="10" width="80" height="80" as="geometry" />
        </mxCell>
        <mxCell id="4lG1aH9SxtIHgWfeeq3n-5" value="" style="edgeStyle=orthogonalEdgeStyle;rounded=0;orthogonalLoop=1;jettySize=auto;html=1;strokeWidth=3;fontStyle=1" edge="1" parent="1" source="4lG1aH9SxtIHgWfeeq3n-2" target="4lG1aH9SxtIHgWfeeq3n-4">
          <mxGeometry relative="1" as="geometry" />
        </mxCell>
        <mxCell id="4lG1aH9SxtIHgWfeeq3n-2" value="salario, gasto" style="shape=parallelogram;perimeter=parallelogramPerimeter;whiteSpace=wrap;html=1;fixedSize=1;strokeWidth=3;fontStyle=1;fillColor=#b0e3e6;strokeColor=#0e8088;" vertex="1" parent="1">
          <mxGeometry x="340" y="140" width="120" height="60" as="geometry" />
        </mxCell>
        <mxCell id="4lG1aH9SxtIHgWfeeq3n-7" value="" style="edgeStyle=orthogonalEdgeStyle;rounded=0;orthogonalLoop=1;jettySize=auto;html=1;strokeWidth=3;fontStyle=1" edge="1" parent="1" source="4lG1aH9SxtIHgWfeeq3n-4" target="4lG1aH9SxtIHgWfeeq3n-6">
          <mxGeometry relative="1" as="geometry" />
        </mxCell>
        <mxCell id="4lG1aH9SxtIHgWfeeq3n-9" value="" style="edgeStyle=orthogonalEdgeStyle;rounded=0;orthogonalLoop=1;jettySize=auto;html=1;strokeWidth=3;fontStyle=1" edge="1" parent="1" source="4lG1aH9SxtIHgWfeeq3n-4" target="4lG1aH9SxtIHgWfeeq3n-8">
          <mxGeometry relative="1" as="geometry" />
        </mxCell>
        <mxCell id="4lG1aH9SxtIHgWfeeq3n-4" value="&lt;font style=&quot;font-size: 10px;&quot;&gt;salario&amp;lt;gasto&lt;/font&gt;" style="rhombus;whiteSpace=wrap;html=1;strokeWidth=3;fontStyle=1;fillColor=#d0cee2;strokeColor=#56517e;" vertex="1" parent="1">
          <mxGeometry x="360" y="240" width="80" height="80" as="geometry" />
        </mxCell>
        <mxCell id="4lG1aH9SxtIHgWfeeq3n-11" style="edgeStyle=orthogonalEdgeStyle;rounded=0;orthogonalLoop=1;jettySize=auto;html=1;entryX=0.383;entryY=0.05;entryDx=0;entryDy=0;entryPerimeter=0;strokeWidth=3;fontStyle=1" edge="1" parent="1" source="4lG1aH9SxtIHgWfeeq3n-6" target="4lG1aH9SxtIHgWfeeq3n-10">
          <mxGeometry relative="1" as="geometry" />
        </mxCell>
        <mxCell id="4lG1aH9SxtIHgWfeeq3n-6" value="&quot;Seu saldo e positivo&quot;" style="shape=document;whiteSpace=wrap;html=1;boundedLbl=1;strokeWidth=3;fontStyle=1;fillColor=#bac8d3;strokeColor=#23445d;" vertex="1" parent="1">
          <mxGeometry x="180" y="360" width="120" height="80" as="geometry" />
        </mxCell>
        <mxCell id="4lG1aH9SxtIHgWfeeq3n-13" style="edgeStyle=orthogonalEdgeStyle;rounded=0;orthogonalLoop=1;jettySize=auto;html=1;entryX=0.583;entryY=0.008;entryDx=0;entryDy=0;entryPerimeter=0;fontStyle=1;strokeWidth=3;" edge="1" parent="1" source="4lG1aH9SxtIHgWfeeq3n-8" target="4lG1aH9SxtIHgWfeeq3n-10">
          <mxGeometry relative="1" as="geometry" />
        </mxCell>
        <mxCell id="4lG1aH9SxtIHgWfeeq3n-8" value="&quot;seu saldo e negativo" style="shape=document;whiteSpace=wrap;html=1;boundedLbl=1;strokeWidth=3;fontStyle=1;fillColor=#bac8d3;strokeColor=#23445d;" vertex="1" parent="1">
          <mxGeometry x="500" y="360" width="120" height="80" as="geometry" />
        </mxCell>
        <mxCell id="4lG1aH9SxtIHgWfeeq3n-10" value="FIM" style="ellipse;whiteSpace=wrap;html=1;strokeWidth=3;fontStyle=1;fillColor=#b1ddf0;strokeColor=#10739e;" vertex="1" parent="1">
          <mxGeometry x="340" y="450" width="120" height="80" as="geometry" />
        </mxCell>
      </root>
    </mxGraphModel>
  </diagram>
</mxfile>
